<?xml version="1.0" encoding="UTF-8"?><svg xmlns="http://www.w3.org/2000/svg" xmlns:xlink="http://www.w3.org/1999/xlink" viewBox="0 0 1207.07 578.46"><defs><style>.g{fill:#fff;}.h{fill:#009639;}.i{fill:url(#f);}.j{fill:#f1c400;}.k{fill:#f2a900;}.l{fill:url(#d);}.m{fill:url(#e);}.n{fill:none;}.o{fill:#e0457b;}</style><linearGradient id="d" x1="241.75" y1="324.19" x2="356.15" y2="324.19" gradientTransform="matrix(1, 0, 0, 1, 0, 0)" gradientUnits="userSpaceOnUse"><stop offset="0" stop-color="#271f62"/><stop offset=".09" stop-color="#411e65"/><stop offset=".2" stop-color="#601e6a"/><stop offset="1" stop-color="#b83679"/></linearGradient><linearGradient id="e" x1="298.95" y1="192.04" x2="298.95" y2="324.16" gradientTransform="matrix(1, 0, 0, 1, 0, 0)" gradientUnits="userSpaceOnUse"><stop offset=".1" stop-color="#e64114"/><stop offset=".24" stop-color="#e84e10"/><stop offset=".75" stop-color="#ef7e06"/><stop offset="1" stop-color="#f29102"/></linearGradient><linearGradient id="f" x1="241.75" y1="390.23" x2="356.15" y2="390.23" gradientTransform="matrix(1, 0, 0, 1, 0, 0)" gradientUnits="userSpaceOnUse"><stop offset=".05" stop-color="#ae223b"/><stop offset=".1" stop-color="#b21f3d"/><stop offset=".45" stop-color="#cd1047"/><stop offset=".76" stop-color="#de074e"/><stop offset="1" stop-color="#e40451"/></linearGradient></defs><g id="a"/><g id="b"><g id="c"><polygon points="1006.28 0 0 0 0 578.46 1207.07 578.46 1207.07 115.93 1006.28 0" style="fill:#009639;"/><g><g><g><path d="M728.23,308.53c0-8.8-3.42-13.71-8.58-17.14-4.16-2.68-9.78-4.16-16.15-4.16-13.98,0-25,8.58-25,19.61v83.04h-32.33v-81.34c0-8.8-3.43-13.71-8.58-17.14-4.16-2.68-9.8-4.16-16.17-4.16-13.98,0-25,8.58-25,19.61v83.04h-32.82v-110.01c0-4.65,1.22-8.57,4.66-12.01,8.56-8.06,22.29-9.54,28.16-10.29v16.19c6.37-9.55,20.58-15.68,33.83-15.68,17.63,0,32.57,7.34,41.4,18.62,8.58-11.28,23.52-18.62,40.92-18.62,27.18,0,48.75,16.91,48.75,38.72v93.08h-33.09v-81.34Z" style="fill:#fff;"/><path d="M995.26,259.61c-20.25,0-36.06,10.24-45.53,28.32v-29.91c-3.63,.92-18.88,5.51-27.13,14.16-3.56,3.67-5.4,7.86-5.38,11.31v106.35h32.52v-50.15c0-29.01,15.17-46.99,41.68-49.3,3.62-.21,7.49-1,7.49-6.7v-24.08h-3.64Z" style="fill:#fff;"/><path d="M1047.2,349.06v-60.36h28.58l16.34-29.14h-44.92v-48.53l-17.95,8.83c-10.24,5.03-15.76,13.63-15.76,22.16v113.55c0,15.75,6.28,37.19,36.03,37.19,17.32,0,29.18-6.43,29.18-10.35v-22.34c-18.61,8.18-31.5,5.63-31.5-11" style="fill:#fff;"/><path d="M407.97,367.23l15.94-24.6c19.28,13.62,40.53,20.93,60.14,20.93,17.97,0,28.25-8.62,28.25-21.59,0-31.56-96.7-19.28-96.7-79.44,0-31.87,26.92-51.48,63.15-51.48,22.24,0,46.84,7.32,65.44,19.61l-10.28,17.96c-3,5.3-7.65,5.98-12.96,3.3-13.96-7.6-29.58-11.95-42.88-11.95-17.61,0-26.56,8.97-26.56,19.93,0,30.59,97.01,19.97,97.01,79.09,0,34.88-27.92,53.81-65.46,53.81-26.59,0-54.17-9.29-75.09-25.56Z" style="fill:#fff;"/><path d="M892.68,314.04c-.04-17.73-3.2-32.14-12.45-41.52-12.28-12.34-26.26-14.4-44.02-14.4-18.27,.04-35.3,7.41-38.5,9.76-2.67,1.97-4.51,4.73-4.47,8.42v17.47c12.1-4.14,27.89-6.53,37.49-6.58,9.88,0,18.21,1.08,23.64,5.57,6.3,5.19,7.05,13.79,7.09,17.89,0,1.47-.09,2.43-.09,2.43l-.08,.53-.49-.09s-14.55-1.54-29.9-1.54c-15.26,.04-28.62,2.85-37.86,10.04-8,6.33-14.3,18.26-14.26,30.95,0,14.45,6.3,24.51,13.62,30.54,7.67,6.25,21.89,9.17,33.8,9.1,12.71-.04,21.4-2.15,26.74-4.25,5.45-2.13,7.63-4.25,7.63-4.25l.88-.77,.04,6.71,31.32-.04-.14-75.96Zm-31.29,32c.04,7.08-2.93,16.52-13.03,20.95-4.99,2.06-10.13,3.27-15.13,3.31-5.04,0-9.88-1.21-13.96-3.73-5.4-3.22-7.46-9.1-7.5-14.41,0-3.64,.96-7.13,2.55-9.56,3.73-5.86,11.06-9.54,23.25-9.81h2.71c13.6-.11,21.1,2.52,21.1,2.52v10.73Z" style="fill:#fff;"/></g><g><polygon points="120.93 114.76 120.93 261.41 229.56 324.09 114.75 390.37 241.8 463.7 362.7 393.93 362.7 254.34 120.93 114.76" style="fill:#fff;"/><polygon points="127.36 390.27 241.75 456.3 241.75 324.16 127.36 390.27" style="fill:#e0457b;"/><polygon points="127.36 126.04 127.36 258.1 241.75 192.04 127.36 126.04" style="fill:#f1c400;"/><polygon points="241.75 192.04 241.75 192.04 127.36 258.1 241.75 324.16 241.75 192.04" style="fill:#f2a900;"/><polygon points="356.15 390.27 356.15 258.12 241.75 324.16 356.15 390.27" style="fill:url(#d);"/><polygon points="241.75 324.16 241.75 324.16 356.15 258.1 241.75 192.04 241.75 324.16" style="fill:url(#e);"/><polygon points="356.15 390.27 356.15 390.27 241.75 324.16 241.75 456.3 356.15 390.27" style="fill:url(#f);"/></g></g><polygon points="241.69 578.45 241.69 578.45 308.01 463.7 175.48 463.7 241.69 578.45" style="fill:none;"/><polygon points="0 400.18 0 400.18 114.75 466.49 114.75 333.97 0 400.18" style="fill:none;"/><polygon points="152.59 .02 152.59 .02 86.27 114.76 218.8 114.76 152.59 .02" style="fill:none;"/><polygon points="1207 336.78 1207 336.78 1092.25 270.46 1092.25 402.98 1207 336.78" style="fill:none;"/></g></g></g></svg>